<svg xmlns="http://www.w3.org/2000/svg" width="30" height="30" viewBox="0 0 30 30"><defs><style>.a,.e{fill:none;}.a{stroke:#fafafa;stroke-dasharray:10 1;}.b{fill:#d0050a;stroke:#323433;}.c{fill:#323433;}.d{stroke:none;}</style></defs><g transform="translate(-521 -1486)"><g class="a" transform="translate(521 1486)"><circle class="d" cx="15" cy="15" r="15"/><circle class="e" cx="15" cy="15" r="14.5"/></g><g class="b" transform="translate(524 1489)"><circle class="d" cx="12" cy="12" r="12"/><circle class="e" cx="12" cy="12" r="12.5"/></g><path class="c" d="M-928.913-10669a47.617,47.617,0,0,1-5.646-.464h-.006l-.14-.018-.027,0a44.671,44.671,0,0,0-5.255-.442,12.906,12.906,0,0,0-2.124.157,12.109,12.109,0,0,1-.207-2.23,11.923,11.923,0,0,1,3.514-8.485,11.921,11.921,0,0,1,8.486-3.515,11.913,11.913,0,0,1,7.09,2.317,11.946,11.946,0,0,1,4.3,5.9c-.491.854-1.006,1.77-1.49,2.632a7.416,7.416,0,0,1-3.635,3.318A12.244,12.244,0,0,1-928.913-10669Z" transform="translate(1466.317 12173)"/></g></svg>